HIERARCHY
ROOT Hips
{
    OFFSET 0.000000 0.000000 0.000000
    CHANNELS 6 Xposition Yposition Zposition Zrotation Xrotation Yrotation
    JOINT Spine
    {
        OFFSET -0.000000 7.305680 0.000000
        CHANNELS 3 Zrotation Xrotation Yrotation
        JOINT Spine1
        {
            OFFSET -0.000000 20.356600 0.000000
            CHANNELS 3 Zrotation Xrotation Yrotation
            JOINT Neck
            {
                OFFSET -0.000000 22.138500 0.000000
                CHANNELS 3 Zrotation Xrotation Yrotation
                JOINT Head
                {
                    OFFSET -0.000000 13.809501 1.781870
                    CHANNELS 3 Zrotation Xrotation Yrotation
                    End Site
                    {
                        OFFSET -0.000000 17.818779 0.000000
                    }
                }
            }
            JOINT LeftShoulder
            {
                OFFSET 3.599130 17.990000 0.023591
                CHANNELS 3 Zrotation Xrotation Yrotation
                JOINT LeftArm
                {
                    OFFSET 12.560999 0.000000 0.000000
                    CHANNELS 3 Zrotation Xrotation Yrotation
                    JOINT LeftForeArm
                    {
                        OFFSET 22.903299 0.000000 0.000000
                        CHANNELS 3 Zrotation Xrotation Yrotation
                        JOINT LeftHand
                        {
                            OFFSET 21.865299 0.000000 0.000000
                            CHANNELS 3 Zrotation Xrotation Yrotation
                            JOINT LeftHandThumb1
                            {
                                OFFSET 1.853710 -2.106480 2.949080
                                CHANNELS 3 Zrotation Xrotation Yrotation
                                JOINT LeftHandThumb2
                                {
                                    OFFSET 2.049150 0.000000 1.336400
                                    CHANNELS 3 Zrotation Xrotation Yrotation
                                    JOINT LeftHandThumb3
                                    {
                                        OFFSET 2.672810 0.000000 0.000000
                                        CHANNELS 3 Zrotation Xrotation Yrotation
                                        End Site
                                        {
                                            OFFSET 2.381310 0.000000 0.000000
                                        }
                                    }
                                }
                            }
                            JOINT LeftHandIndex1
                            {
                                OFFSET 7.583340 0.000000 2.949080
                                CHANNELS 3 Zrotation Xrotation Yrotation
                                JOINT LeftHandIndex2
                                {
                                    OFFSET 4.454680 0.000000 0.000000
                                    CHANNELS 3 Zrotation Xrotation Yrotation
                                    JOINT LeftHandIndex3
                                    {
                                        OFFSET 2.227340 0.000000 0.000000
                                        CHANNELS 3 Zrotation Xrotation Yrotation
                                        End Site
                                        {
                                            OFFSET 1.984424 0.000000 0.000000
                                        }
                                    }
                                }
                            }
                            JOINT LeftHandMiddle1
                            {
                                OFFSET 7.583340 0.000000 0.977409
                                CHANNELS 3 Zrotation Xrotation Yrotation
                                JOINT LeftHandMiddle2
                                {
                                    OFFSET 4.900150 0.000000 0.000000
                                    CHANNELS 3 Zrotation Xrotation Yrotation
                                    JOINT LeftHandMiddle3
                                    {
                                        OFFSET 2.672810 0.000000 0.000000
                                        CHANNELS 3 Zrotation Xrotation Yrotation
                                        End Site
                                        {
                                            OFFSET 2.381310 0.000000 0.000000
                                        }
                                    }
                                }
                            }
                            JOINT LeftHandRing1
                            {
                                OFFSET 7.162050 0.000000 -0.977409
                                CHANNELS 3 Zrotation Xrotation Yrotation
                                JOINT LeftHandRing2
                                {
                                    OFFSET 4.454680 0.000000 0.000000
                                    CHANNELS 3 Zrotation Xrotation Yrotation
                                    JOINT LeftHandRing3
                                    {
                                        OFFSET 2.227340 0.000000 0.000000
                                        CHANNELS 3 Zrotation Xrotation Yrotation
                                        End Site
                                        {
                                            OFFSET 1.984424 0.000000 0.000000
                                        }
                                    }
                                }
                            }
                            JOINT LeftHandPinky1
                            {
                                OFFSET 6.740750 0.000000 -2.949080
                                CHANNELS 3 Zrotation Xrotation Yrotation
                                JOINT LeftHandPinky2
                                {
                                    OFFSET 3.563750 0.000000 0.000000
                                    CHANNELS 3 Zrotation Xrotation Yrotation
                                    JOINT LeftHandPinky3
                                    {
                                        OFFSET 1.781870 0.000000 0.000000
                                        CHANNELS 3 Zrotation Xrotation Yrotation
                                        End Site
                                        {
                                            OFFSET 1.587538 0.000000 0.000000
                                        }
                                    }
                                }
                            }
                        }
                    }
                }
            }
            JOINT RightShoulder
            {
                OFFSET -3.506990 17.990000 0.023591
                CHANNELS 3 Zrotation Xrotation Yrotation
                JOINT RightArm
                {
                    OFFSET -12.560999 0.000000 0.000000
                    CHANNELS 3 Zrotation Xrotation Yrotation
                    JOINT RightForeArm
                    {
                        OFFSET -22.903299 0.000000 0.000000
                        CHANNELS 3 Zrotation Xrotation Yrotation
                        JOINT RightHand
                        {
                            OFFSET -21.865299 0.000000 0.000000
                            CHANNELS 3 Zrotation Xrotation Yrotation
                            JOINT RightHandThumb1
                            {
                                OFFSET -1.853710 -2.106480 2.949080
                                CHANNELS 3 Zrotation Xrotation Yrotation
                                JOINT RightHandThumb2
                                {
                                    OFFSET -2.049150 0.000000 1.336400
                                    CHANNELS 3 Zrotation Xrotation Yrotation
                                    JOINT RightHandThumb3
                                    {
                                        OFFSET -2.672810 0.000000 0.000000
                                        CHANNELS 3 Zrotation Xrotation Yrotation
                                        End Site
                                        {
                                            OFFSET -2.381310 0.000000 0.000000
                                        }
                                    }
                                }
                            }
                            JOINT RightHandIndex1
                            {
                                OFFSET -7.583340 0.000000 2.949080
                                CHANNELS 3 Zrotation Xrotation Yrotation
                                JOINT RightHandIndex2
                                {
                                    OFFSET -4.454680 0.000000 0.000000
                                    CHANNELS 3 Zrotation Xrotation Yrotation
                                    JOINT RightHandIndex3
                                    {
                                        OFFSET -2.227340 0.000000 0.000000
                                        CHANNELS 3 Zrotation Xrotation Yrotation
                                        End Site
                                        {
                                            OFFSET -1.984424 0.000000 0.000000
                                        }
                                    }
                                }
                            }
                            JOINT RightHandMiddle1
                            {
                                OFFSET -7.583340 0.000000 0.977409
                                CHANNELS 3 Zrotation Xrotation Yrotation
                                JOINT RightHandMiddle2
                                {
                                    OFFSET -4.900150 0.000000 0.000000
                                    CHANNELS 3 Zrotation Xrotation Yrotation
                                    JOINT RightHandMiddle3
                                    {
                                        OFFSET -2.672810 0.000000 0.000000
                                        CHANNELS 3 Zrotation Xrotation Yrotation
                                        End Site
                                        {
                                            OFFSET -2.381310 0.000000 0.000000
                                        }
                                    }
                                }
                            }
                            JOINT RightHandRing1
                            {
                                OFFSET -7.162050 0.000000 -0.977409
                                CHANNELS 3 Zrotation Xrotation Yrotation
                                JOINT RightHandRing2
                                {
                                    OFFSET -4.454680 0.000000 0.000000
                                    CHANNELS 3 Zrotation Xrotation Yrotation
                                    JOINT RightHandRing3
                                    {
                                        OFFSET -2.227340 0.000000 0.000000
                                        CHANNELS 3 Zrotation Xrotation Yrotation
                                        End Site
                                        {
                                            OFFSET -1.984424 0.000000 0.000000
                                        }
                                    }
                                }
                            }
                            JOINT RightHandPinky1
                            {
                                OFFSET -6.740750 0.000000 -2.949080
                                CHANNELS 3 Zrotation Xrotation Yrotation
                                JOINT RightHandPinky2
                                {
                                    OFFSET -3.563750 0.000000 0.000000
                                    CHANNELS 3 Zrotation Xrotation Yrotation
                                    JOINT RightHandPinky3
                                    {
                                        OFFSET -1.781870 0.000000 0.000000
                                        CHANNELS 3 Zrotation Xrotation Yrotation
                                        End Site
                                        {
                                            OFFSET -1.587538 0.000000 0.000000
                                        }
                                    }
                                }
                            }
                        }
                    }
                }
            }
        }
    }
    JOINT LeftUpLeg
    {
        OFFSET 8.909360 0.000000 0.000000
        CHANNELS 3 Zrotation Xrotation Yrotation
        JOINT LeftLeg
        {
            OFFSET -0.000000 -38.765602 0.000000
            CHANNELS 3 Zrotation Xrotation Yrotation
            JOINT LeftFoot
            {
                OFFSET -0.000000 -35.245003 0.000000
                CHANNELS 3 Zrotation Xrotation Yrotation
                JOINT LeftToeBase
                {
                    OFFSET -0.000000 -5.791090 13.364000
                    CHANNELS 3 Zrotation Xrotation Yrotation
                    End Site
                    {
                        OFFSET -0.000000 0.000000 3.563756
                    }
                }
            }
        }
    }
    JOINT RightUpLeg
    {
        OFFSET -8.909360 0.000000 0.000000
        CHANNELS 3 Zrotation Xrotation Yrotation
        JOINT RightLeg
        {
            OFFSET -0.000000 -38.765602 0.000000
            CHANNELS 3 Zrotation Xrotation Yrotation
            JOINT RightFoot
            {
                OFFSET -0.000000 -35.245003 0.000000
                CHANNELS 3 Zrotation Xrotation Yrotation
                JOINT RightToeBase
                {
                    OFFSET -0.000000 -5.791090 13.364000
                    CHANNELS 3 Zrotation Xrotation Yrotation
                    End Site
                    {
                        OFFSET -0.000000 0.000000 3.563756
                    }
                }
            }
        }
    }
}
MOTION
Frames:    4
Frame Time:    0.033333
-2.311944    77.646393    112.464317    -1.833158    -1.161591    0.664422    -0.139731    -2.822279    -4.135332    3.469565    9.949483    -1.679543    0.113438    -1.297559    2.095269    2.919765    -26.517181    2.502379    4.031735    8.698523    -10.850306    -76.463837    38.262821    13.942752    67.649628    24.049810    -69.150887    12.490844    -25.623575    -27.433331    -14.955495    10.765957    -5.989949    0.000000    0.000000    0.000000    0.000000    0.000000    0.000000    23.456068    0.000000    -0.000000    0.000000    0.000000    0.000000    0.000000    0.000000    0.000000    3.915258    -2.052959    6.956576    -24.264328    0.000000    0.000000    -12.132164    0.000000    0.000000    -15.320348    -6.299979    12.851590    -48.528656    0.000000    0.000000    -24.264328    0.000000    0.000000    -34.879425    -12.437024    17.168892    -73.528252    0.000000    0.000000    -36.764130    0.000000    0.000000    -7.912382    1.568888    -0.471641    81.773132    67.441391    -12.630135    -49.242744    34.112797    39.154705    -12.852994    -59.809635    55.156395    1.914265    -4.493793    8.387422    0.000000    0.000000    0.000000    0.000000    0.000000    0.000000    7.798705    0.000000    -0.000000    15.597409    0.000000    -0.000000    7.798705    0.000000    -0.000000    13.131033    -2.271073    -6.653180    26.639410    0.000000    -0.000000    13.319702    0.000000    -0.000000    18.179369    -5.135105    -13.085766    37.681412    0.000000    -0.000000    18.840702    0.000000    -0.000000    23.043135    -8.646795    -19.465725    49.058006    0.000000    -0.000000    24.529003    0.000000    -0.000000    19.637730    -2.496163    14.910176    4.119706    12.651781    18.287594    -24.118078    4.727672    -24.080528    0.566681    -3.415320    -1.942847    -13.822754    -6.391471    -1.251850    -2.478572    18.826815    -12.269367    21.866629    -7.198309    11.386695    -0.449003    -1.095814    0.600411    
-2.382411    77.955818    111.598373    -1.985579    1.271430    0.634913    0.020444    -1.722820    -3.865178    3.205296    8.954058    -1.539529    0.464815    -5.293384    2.140198    3.308925    -26.063087    2.603447    4.225939    9.022595    -10.783496    -77.248619    37.150768    14.580231    69.340782    23.231041    -69.637749    11.309089    -24.226645    -28.391655    -14.753866    10.468854    -6.163348    0.000000    0.000000    0.000000    0.000000    0.000000    0.000000    23.684523    0.000000    -0.000000    0.000000    0.000000    0.000000    0.000000    0.000000    0.000000    4.134957    -2.045033    7.021780    -24.139635    0.000000    0.000000    -12.069815    0.000000    0.000000    -15.105477    -6.306986    12.980583    -48.279259    0.000000    0.000000    -24.139624    0.000000    0.000000    -34.662987    -12.480433    17.355492    -73.150375    0.000000    0.000000    -36.575188    0.000000    0.000000    -7.761439    1.689687    -0.171903    84.429703    66.523148    -15.174295    -48.925247    33.411415    38.764423    -13.075941    -59.789089    54.945541    1.655800    -4.660293    8.437667    0.000000    0.000000    0.000000    0.000000    0.000000    0.000000    7.899434    0.000000    -0.000000    15.798867    0.000000    -0.000000    7.899434    0.000000    -0.000000    13.259327    -2.294340    -6.660639    26.900076    0.000000    -0.000000    13.450035    0.000000    -0.000000    18.332335    -5.185146    -13.097482    38.001282    0.000000    -0.000000    19.000635    0.000000    -0.000000    23.218685    -8.727284    -19.478559    49.438885    0.000000    -0.000000    24.719442    0.000000    -0.000000    19.321661    -4.336776    15.431401    4.365239    10.173100    19.029526    -23.549774    6.547694    -23.685877    0.564618    -3.401940    -1.935122    -13.446024    -8.384669    -1.418726    -2.715451    16.663065    -13.101639    21.548580    -5.397128    11.163751    -0.442506    -1.062773    0.593334    
-2.438957    78.218941    110.741127    -2.135793    3.672409    0.628574    0.209358    -0.502648    -3.495416    2.934299    7.803020    -1.365639    1.247001    -9.905073    2.336943    2.579472    -24.387749    2.703601    4.378741    9.254665    -10.919107    -77.995285    36.413342    15.396514    71.161552    22.278994    -70.098083    10.581233    -22.863775    -29.209267    -14.747829    10.136587    -6.717552    0.000000    0.000000    0.000000    0.000000    0.000000    0.000000    23.404003    0.000000    -0.000000    0.000000    0.000000    0.000000    0.000000    0.000000    0.000000    4.063035    -2.030316    7.036614    -23.903458    0.000000    0.000000    -11.951729    0.000000    0.000000    -14.968806    -6.261604    13.029610    -47.806923    0.000000    0.000000    -23.903456    0.000000    0.000000    -34.304565    -12.400676    17.471563    -72.434715    0.000000    0.000000    -36.217358    0.000000    0.000000    -7.719369    1.799304    0.192780    87.555267    65.371010    -18.192621    -48.935261    32.725475    38.593796    -13.547341    -59.764626    54.514912    1.470692    -4.899148    8.655207    0.000000    0.000000    0.000000    0.000000    0.000000    0.000000    7.861897    0.000000    -0.000000    15.723795    0.000000    -0.000000    7.861897    0.000000    -0.000000    13.264665    -2.299269    -6.656167    26.911940    0.000000    -0.000000    13.455972    0.000000    -0.000000    18.380127    -5.199356    -13.085997    38.100094    0.000000    -0.000000    19.050049    0.000000    -0.000000    23.309811    -8.755122    -19.456543    49.627277    0.000000    -0.000000    24.813641    0.000000    -0.000000    19.117857    -6.142835    15.770231    4.418012    7.756194    19.511631    -22.946894    8.141360    -22.956657    0.559943    -3.390493    -1.920832    -13.124816    -10.403311    -1.307935    -2.868495    14.658607    -13.911937    21.208395    -3.772345    10.704332    -0.436346    -1.029502    0.586816    
-2.476230    78.432129    109.884300    -2.306185    6.025018    0.656509    0.432385    0.867851    -3.055168    2.663718    6.551592    -1.169432    1.672669    -14.722739    2.280463    2.509974    -22.723200    2.543694    4.432345    9.351304    -11.225668    -78.642380    36.048046    16.394615    72.974518    21.369808    -70.534309    10.375260    -22.066999    -29.785170    -15.113929    10.110621    -7.375733    0.000000    0.000000    0.000000    0.000000    0.000000    0.000000    22.781406    0.000000    -0.000000    0.000000    0.000000    0.000000    0.000000    0.000000    0.000000    3.832902    -2.007773    7.039809    -23.518805    0.000000    0.000000    -11.759404    0.000000    0.000000    -14.807937    -6.177798    13.071589    -47.037598    0.000000    0.000000    -23.518808    0.000000    0.000000    -33.731121    -12.239357    17.614697    -71.269096    0.000000    0.000000    -35.634548    0.000000    0.000000    -7.711814    1.843273    0.610277    90.803345    64.157730    -21.466539    -49.214996    32.056953    38.653614    -14.100837    -59.887688    54.094379    1.404755    -5.038148    8.814015    0.000000    0.000000    0.000000    0.000000    0.000000    0.000000    7.669716    0.000000    -0.000000    15.339432    0.000000    -0.000000    7.669716    0.000000    -0.000000    13.105429    -2.277340    -6.640866    26.590233    0.000000    -0.000000    13.295118    0.000000    -0.000000    18.256790    -5.158036    -13.055508    37.841042    0.000000    -0.000000    18.920519    0.000000    -0.000000    23.226318    -8.696724    -19.409344    49.432774    0.000000    -0.000000    24.716387    0.000000    -0.000000    19.067169    -8.109205    15.726269    4.352194    5.821902    20.167320    -22.396902    9.463746    -22.197407    0.555589    -3.359775    -1.904133    -12.871120    -12.454863    -0.878493    -2.900532    12.863148    -14.738351    20.857325    -2.356892    9.997112    -0.429818    -0.988471    0.580477    
